# xmcd CD database file
#
# Track frame offsets:
#	150
#	13102
#	30172
#	47717
#	62105
#	73740
#	88172
#	98765
#	118465
#	128885
#	146100
#	156030
#	167167
#
# Disc length: 2489 seconds
#
# Revision: 7
# Processed by: cddbd v1.5.2PL0 Copyright (c) Steve Scherf et al.
# Submitted via: CDex 1.70beta2
#
DISCID=b709b70d
DTITLE=Kentucky Headhunters - Best Of The Kentucky Headhunters
DYEAR=1994
DGENRE=Country
TTITLE0=Dumas Walker
TTITLE1=Walk Softly On This Heart Of Mine
TTITLE2=Rock N' Roll Angel
TTITLE3=Oh Lonesome Me
TTITLE4=The Ballad Of Davy Cockett
TTITLE5=Only Daddy That'll Walk The Line
TTITLE6=It's Chitlin' Time
TTITLE7=Spirit In The Sky
TTITLE8=Let's Work Together
TTITLE9=Honky Tonk Walkin'
TTITLE10=Dixie Fried
TTITLE11=Redneck Girl
TTITLE12=You've Go To Hide Your Love Away
EXTD=Best of Kentucky Head Hunters YEAR: 1994
EXTT0=
EXTT1=
EXTT2=
EXTT3=
EXTT4=
EXTT5=
EXTT6=
EXTT7=
EXTT8=
EXTT9=
EXTT10=
EXTT11=
EXTT12=
PLAYORDER=
